<svg xmlns="http://www.w3.org/2000/svg" viewBox="0 0 24 24">
  <rect width="24" height="24" rx="5" fill="#1f3a66"/>
  <g transform="translate(2.3 2.5) scale(0.81)">
    <path fill="#ffffff" d="M21 10.78V8c0-1.65-1.35-3-3-3h-4c-.77 0-1.47.29-2 .78C9.47 5.29 8.77 5 8 5H6C4.35 5 3 6.35 3 8v2.78c-.61.55-1 1.34-1 2.22v6h1.33L4 21h1l.67-2h12.67l.66 2h1l.67-2H22v-6c0-.88-.39-1.67-1-2.22zM14 7h4c.55 0 1 .45 1 1v2h-6V8c0-.55.45-1 1-1zM5 8c0-.55.45-1 1-1h4c.55 0 1 .45 1 1v2H5V8zm15 9H4v-4c0-.55.45-1 1-1h14c.55 0 1 .45 1 1v4z"/>
  </g>
</svg>
