<?xml version="1.0" standalone="no"?>
<!DOCTYPE svg PUBLIC "-//W3C//DTD SVG 20010904//EN"
 "http://www.w3.org/TR/2001/REC-SVG-20010904/DTD/svg10.dtd">
<svg version="1.0" xmlns="http://www.w3.org/2000/svg"
 width="512.000000pt" height="512.000000pt" viewBox="0 0 512.000000 512.000000"
 preserveAspectRatio="xMidYMid meet">
<metadata>
Created by potrace 1.11, written by Peter Selinger 2001-2013
</metadata>
<g transform="translate(0.000000,512.000000) scale(0.100000,-0.100000)"
fill="#000000" stroke="none">
<path d="M2498 4487 c-21 -12 -108 -103 -195 -202 -86 -99 -303 -346 -481
-549 -178 -203 -331 -384 -340 -402 -8 -19 -18 -34 -21 -34 -3 0 -111 99 -239
220 -128 121 -246 227 -262 235 -42 22 -84 19 -117 -9 -30 -26 -355 -462 -385
-518 -10 -18 -18 -47 -18 -65 0 -36 32 -256 165 -1123 48 -311 95 -621 106
-690 23 -158 53 -345 75 -480 9 -58 22 -139 28 -180 l11 -75 55 2 c30 2 181
10 335 18 667 35 1519 45 2125 24 237 -8 742 -35 846 -45 l62 -5 11 48 c6 26
15 77 21 113 5 36 12 76 14 90 23 128 40 222 56 315 11 61 26 148 34 195 21
119 82 468 111 635 33 192 85 489 141 805 49 279 54 333 34 371 -30 58 -408
559 -432 573 -35 21 -76 20 -113 -3 -16 -10 -131 -114 -255 -231 -221 -209
-224 -212 -240 -190 -24 35 -188 222 -608 695 -352 395 -440 485 -477 485 -5
0 -27 -10 -47 -23z m331 -2541 c57 -30 56 -25 52 -324 -2 -152 -7 -285 -12
-296 -13 -30 -32 -60 -44 -68 -5 -4 -130 -8 -276 -8 -370 0 -349 -21 -349 355
0 287 3 300 68 334 34 18 58 20 285 21 196 0 254 -3 276 -14z"/>
</g>
</svg>
